<?xml version="1.0" standalone="no"?><!DOCTYPE svg PUBLIC "-//W3C//DTD SVG 1.1//EN" "http://www.w3.org/Graphics/SVG/1.1/DTD/svg11.dtd"><svg t="1719302591346" class="icon" viewBox="0 0 1024 1024" version="1.1" xmlns="http://www.w3.org/2000/svg" p-id="1589" xmlns:xlink="http://www.w3.org/1999/xlink" width="200" height="200"><path d="M0 0m182.570457 0l658.859086 0q182.570457 0 182.570457 182.570457l0 658.859086q0 182.570457-182.570457 182.570457l-658.859086 0q-182.570457 0-182.570457-182.570457l0-658.859086q0-182.570457 182.570457-182.570457Z" fill="#C34A36" p-id="1590"></path><path d="M757.284425 465.773195a245.230334 245.230334 0 1 0-347.528641 222.857988v20.013946a32.022313 32.022313 0 0 0 32.022313 32.022312h140.638536a32.022313 32.022313 0 0 0 32.022313-32.022312v-20.013946a245.208697 245.208697 0 0 0 142.845479-222.857988z" fill="#FFFFFF" opacity=".56" p-id="1591"></path><path d="M408.911953 758.885541m21.290511 0l162.426691 0q21.290511 0 21.29051 21.290511l0 1.968939q0 21.290511-21.29051 21.290511l-162.426691 0q-21.290511 0-21.290511-21.290511l0-1.968939q0-21.290511 21.290511-21.290511Z" fill="#FFFFFF" opacity=".56" p-id="1592"></path><path d="M674.459146 523.413358a17.028081 17.028081 0 0 1-16.487164-21.441967c28.755171-108.810954-62.270416-156.519872-66.165022-158.510449a17.028081 17.028081 0 0 1 15.275509-30.421197c1.211655 0.584191 119.737486 61.642952 83.820567 197.629598a17.028081 17.028081 0 0 1-16.44389 12.744015z" fill="#FFFFFF" opacity=".56" p-id="1593"></path></svg>